<?xml version="1.0" standalone="no"?>
<!DOCTYPE svg PUBLIC "-//W3C//DTD SVG 20010904//EN"
 "http://www.w3.org/TR/2001/REC-SVG-20010904/DTD/svg10.dtd">
<svg version="1.0" xmlns="http://www.w3.org/2000/svg"
 width="64.000000pt" height="64.000000pt" viewBox="0 0 64.000000 64.000000"
 preserveAspectRatio="xMidYMid meet">

<g transform="translate(0.000000,64.000000) scale(0.100000,-0.100000)"
fill="#000000" stroke="none">
<path d="M5 627 c-3 -7 -4 -123 -3 -257 l3 -245 123 -3 c131 -3 173 -22 48
-22 l-73 0 -37 -48 -37 -47 145 -3 c80 -1 212 -1 292 0 l145 3 -37 48 -37 47
-73 0 c-125 0 -83 19 49 22 l122 3 0 255 0 255 -313 3 c-247 2 -314 0 -317
-11z m580 -247 l0 -205 -265 0 -265 0 -3 195 c-1 107 0 200 3 207 3 11 59 13
267 11 l263 -3 0 -205z"/>
<path d="M160 445 l-65 -65 68 -67 67 -68 20 21 20 20 -50 49 -50 49 47 48
c39 40 44 49 33 63 -7 8 -15 15 -19 15 -4 0 -36 -29 -71 -65z"/>
<path d="M390 495 c-11 -14 -6 -23 33 -63 l47 -48 -50 -49 -50 -49 20 -20 20
-21 67 68 68 67 -65 65 c-35 36 -67 65 -71 65 -4 0 -12 -7 -19 -15z"/>
</g>
</svg>
